<svg width="30" height="30" viewBox="0 0 30 30" fill="current" xmlns="http://www.w3.org/2000/svg">
<path d="M28.2857 2.14285H22.2857C19.1366 2.14285 16.4863 3.06084 15 4.49913C13.5137 3.06084 10.8634 2.14285 7.71431 2.14285H1.71431C0.769706 2.14285 0 2.91168 0 3.85712V23.5714C0 24.5177 0.769706 25.2856 1.71426 25.2856H7.71426C10.0002 25.2856 12.4825 26.268 13.3731 27.1971C13.7768 27.6189 14.3348 27.8572 14.9185 27.8572H15.09C15.6694 27.8572 16.224 27.6197 16.6234 27.1997C17.5105 26.2697 19.9953 25.2856 22.2857 25.2856H28.2856C29.2311 25.2856 30 24.5177 30 23.5714V3.85712C30 2.91168 29.2311 2.14285 28.2857 2.14285ZM13.7143 24.12C12.1911 23.2414 10.0963 22.7142 7.71426 22.7142H2.57142V4.71427H7.71431C11.3769 4.71427 13.7143 6.23741 13.7143 7.2857V24.12H13.7143ZM27.4286 22.7142H22.2857C19.9037 22.7142 17.8089 23.2414 16.2857 24.12V7.2857C16.2857 6.23741 18.6232 4.71427 22.2857 4.71427H27.4286V22.7142Z" fill="#current"/>
</svg>
